<svg xmlns="http://www.w3.org/2000/svg" xmlns:xlink="http://www.w3.org/1999/xlink" fill="none" version="1.1" width="152.41015625" height="36" viewBox="0 0 152.41015625 36"><g><g><g><path d="M0,17.9995C0,27.941,8.05942,36,18.0003,36L18.0003,36C27.9416,36,36,27.941,36,17.9995L36,17.9995C36,8.05852,27.9416,0,18.0003,0L18.0003,0C8.05942,0,0,8.05852,0,17.9995Z" fill-rule="evenodd" fill="#EC671A" fill-opacity="1"/></g><g><path d="M18.03964052307129,8.746636455993652C18.96942052307129,7.232229455993652,20.62472052307129,6.300406455993652,22.41242052307129,6.300406455993652C25.238020523071288,6.300406455993652,27.53732052307129,8.594636455993653,27.53732052307129,11.413996455993653L27.53732052307129,29.748506455993653L26.03332052307129,29.238106455993652L26.03332052307129,19.56810645599365C25.69962052307129,19.720606455993654,25.33382052307129,19.79990645599365,24.96342052307129,19.79990645599365L24.62202052307129,19.79990645599365L24.62202052307129,28.759206455993652L23.11812052307129,28.248806455993652L23.11812052307129,19.79990645599365L21.70732052307129,19.79990645599365L21.70732052307129,27.769406455993654L20.203420523071287,27.260606455993653L20.203420523071287,19.79990645599365L19.862020523071287,19.79990645599365C19.49162052307129,19.79990645599365,19.12582052307129,19.720606455993654,18.79212052307129,19.56810645599365L18.79212052307129,26.78120645599365L17.288170523071287,26.269806455993653L17.288170523071287,19.56810645599365C16.95395052307129,19.72010645599365,16.58815052307129,19.79990645599365,16.217760523071288,19.79990645599365L15.87641052307129,19.79990645599365L15.87641052307129,25.791406455993652L14.37244052307129,25.28100645599365L14.37244052307129,19.79990645599365L12.96171052307129,19.79990645599365L12.96171052307129,24.80220645599365L11.457740523071289,24.29180645599365L11.457740523071289,19.79990645599365L11.116900523071289,19.79990645599365C10.74651052307129,19.79990645599365,10.38020052307129,19.720606455993654,10.04649052307129,19.56810645599365L10.04649052307129,23.812406455993653L8.542520523071289,23.302006455993652L8.542520523071289,11.413996455993653C8.542520523071289,8.594636455993653,10.84178052307129,6.300406455993652,13.666820523071289,6.300406455993652C15.455080523071288,6.300406455993652,17.11036052307129,7.232229455993652,18.03964052307129,8.746636455993652ZM10.046430523071288,17.231706455993653L10.046430523071288,11.413986455993651C10.046430523071288,9.421726455993653,11.670630523071289,7.801076455993652,13.66676052307129,7.801076455993652C15.663390523071289,7.801076455993652,17.28810052307129,9.421726455993653,17.28810052307129,11.413986455993651L17.28810052307129,17.231706455993653C17.28810052307129,17.820306455993652,16.807670523071288,18.29920645599365,16.21770052307129,18.29920645599365L11.11683052307129,18.29920645599365C10.526350523071288,18.29920645599365,10.046430523071288,17.820306455993652,10.046430523071288,17.231706455993653ZM18.79252052307129,17.231706455993653L18.79252052307129,11.413986455993651C18.79252052307129,9.421726455993653,20.41672052307129,7.801076455993652,22.41282052307129,7.801076455993652C24.40952052307129,7.801076455993652,26.03372052307129,9.421726455993653,26.03372052307129,11.413986455993651L26.03372052307129,17.231706455993653C26.03372052307129,17.820306455993652,25.553720523071288,18.29920645599365,24.963820523071288,18.29920645599365L19.86242052307129,18.29920645599365C19.271920523071287,18.29920645599365,18.79252052307129,17.820306455993652,18.79252052307129,17.231706455993653Z" fill-rule="evenodd" fill="#FFFFFF" fill-opacity="1"/></g></g><g><path d="M61.6878916015625,29.234425L53.262141601562504,29.234425Q48.3136616015625,29.234425,46.3075316015625,27.094525Q44.3013916015625,24.820825,44.3013916015625,19.604925L44.3013916015625,6.765625L61.6878916015625,6.765625L61.6878916015625,9.975445L47.3774716015625,9.975445L47.3774716015625,16.127605000000003L60.8854916015625,16.127605000000003L60.8854916015625,19.203725L47.3774716015625,19.203725L47.3774716015625,19.604925Q47.3774716015625,23.349725,48.7148916015625,24.687125Q49.9185716015625,26.024525,53.262141601562504,26.024525L61.6878916015625,26.024525L61.6878916015625,29.234425ZM83.75539160156251,22.413525Q83.75539160156251,26.024525,81.0805916015625,27.896925Q78.94069160156249,29.234425,75.9983916015625,29.234425L63.5602916015625,29.234425L63.5602916015625,6.765625L76.5332916015625,6.765625Q79.2081916015625,6.765625,81.0805916015625,8.103055Q83.0866916015625,9.707965,83.0866916015625,12.650295Q83.0866916015625,15.458895,81.21429160156251,17.197525Q83.75539160156251,19.069924999999998,83.75539160156251,22.413525ZM79.8768916015625,12.650295Q79.8768916015625,9.975445,76.5332916015625,9.975445L66.7700916015625,9.975445L66.7700916015625,15.993865L75.3296916015625,15.993865Q79.8768916015625,15.993865,79.8768916015625,12.650295ZM80.6793916015625,22.413525Q80.6793916015625,20.808625,79.4756916015625,19.872425Q78.5394916015625,19.069924999999998,77.2020916015625,19.069924999999998L66.7700916015625,19.069924999999998L66.7700916015625,26.024525L75.9983916015625,26.024525Q80.6793916015625,26.024525,80.6793916015625,22.413525ZM110.0134916015625,29.234425L106.5361916015625,29.234425L104.1288916015625,23.884625L91.2895916015625,23.884625L89.1496916015625,29.234425L85.67239160156251,29.234425L95.0343916015625,6.765625L97.4417916015625,6.765625Q99.18039160156249,6.765625,100.1165916015625,7.56808Q100.9190916015625,8.236795,101.72149160156249,10.109185L110.0134916015625,29.234425ZM102.7914916015625,20.674825L98.51169160156249,10.777905Q98.1104916015625,9.841705000000001,97.4417916015625,9.841705000000001L97.1742916015625,9.841705000000001L92.62699160156251,20.674825L102.7914916015625,20.674825ZM130.78819160156252,29.234425L127.7120916015625,29.234425L115.2740916015625,11.179124999999999L115.2740916015625,29.234425L112.0642916015625,29.234425L112.0642916015625,6.765625L115.6752916015625,6.765625L127.7120916015625,23.884625L127.7120916015625,6.765625L130.78819160156252,6.765625L130.78819160156252,29.234425ZM152.41039160156248,29.234425L143.3153916015625,29.234425Q138.7681916015625,29.234425,136.36079160156248,27.495725Q132.7497916015625,24.954625,132.7497916015625,18.000025Q132.7497916015625,11.045385,136.36079160156248,8.370535Q138.7681916015625,6.765625,143.3153916015625,6.765625L152.2763916015625,6.765625L152.2763916015625,9.975445L143.3153916015625,9.975445Q139.8380916015625,9.975445,138.36699160156252,10.911645Q135.9595916015625,12.784044999999999,135.9595916015625,18.000025Q135.9595916015625,23.215925,138.36699160156252,24.954625Q139.8380916015625,26.024525,143.3153916015625,26.024525L149.2003916015625,26.024525L149.2003916015625,22.681024999999998Q149.2003916015625,20.808625,148.53139160156252,20.006125Q147.8623916015625,19.337425,146.12439160156248,19.337425L142.11169160156248,19.337425L142.11169160156248,16.261345L146.12439160156248,16.261345Q152.41039160156248,16.261345,152.41039160156248,22.681024999999998L152.41039160156248,29.234425Z" fill="#EC671A" fill-opacity="1"/></g></g></svg>